<mxfile host="65bd71144e">
    <diagram id="RpYcxEiXhlqE6-6RMeCe" name="Flowchart">
        <mxGraphModel dx="716" dy="607" grid="1" gridSize="10" guides="1" tooltips="1" connect="1" arrows="1" fold="1" page="1" pageScale="1" pageWidth="850" pageHeight="1100" math="0" shadow="0">
            <root>
                <mxCell id="0"/>
                <mxCell id="1" parent="0"/>
                <mxCell id="3" value="False" style="edgeStyle=none;html=1;" parent="1" edge="1">
                    <mxGeometry relative="1" as="geometry">
                        <mxPoint x="510" y="275" as="sourcePoint"/>
                    </mxGeometry>
                </mxCell>
                <mxCell id="jTWBaRGK2jDJUKLFi1sU-1" value="&lt;h1&gt;Flowchart Vehicles&lt;/h1&gt;" style="text;html=1;strokeColor=none;fillColor=none;spacing=5;spacingTop=-20;whiteSpace=wrap;overflow=hidden;rounded=0;align=center;" parent="1" vertex="1">
                    <mxGeometry x="160" y="10" width="150" height="70" as="geometry"/>
                </mxCell>
                <mxCell id="66" value="" style="group" parent="1" vertex="1" connectable="0">
                    <mxGeometry x="30" y="100" width="90" height="160" as="geometry"/>
                </mxCell>
                <mxCell id="30" value="A" style="ellipse;whiteSpace=wrap;html=1;aspect=fixed;" parent="66" vertex="1">
                    <mxGeometry x="10" width="40" height="40" as="geometry"/>
                </mxCell>
                <mxCell id="31" value="DB" style="shape=cylinder3;whiteSpace=wrap;html=1;boundedLbl=1;backgroundOutline=1;size=15;" parent="66" vertex="1">
                    <mxGeometry y="80" width="60" height="80" as="geometry"/>
                </mxCell>
                <mxCell id="65" style="edgeStyle=none;html=1;exitX=0.5;exitY=1;exitDx=0;exitDy=0;" parent="66" source="30" target="31" edge="1">
                    <mxGeometry relative="1" as="geometry"/>
                </mxCell>
                <mxCell id="74" style="edgeStyle=none;html=1;exitX=0.5;exitY=1;exitDx=0;exitDy=0;entryX=0.5;entryY=0;entryDx=0;entryDy=0;" parent="1" source="71" target="73" edge="1">
                    <mxGeometry relative="1" as="geometry"/>
                </mxCell>
                <mxCell id="71" value="B" style="ellipse;whiteSpace=wrap;html=1;aspect=fixed;" parent="1" vertex="1">
                    <mxGeometry x="45" y="320" width="40" height="40" as="geometry"/>
                </mxCell>
                <mxCell id="73" value="END" style="ellipse;whiteSpace=wrap;html=1;" parent="1" vertex="1">
                    <mxGeometry x="15" y="390" width="100" height="50" as="geometry"/>
                </mxCell>
                <mxCell id="282" value="" style="group" parent="1" vertex="1" connectable="0">
                    <mxGeometry x="1160" y="120" width="952.5" height="1320" as="geometry"/>
                </mxCell>
                <mxCell id="283" value="START" style="ellipse;whiteSpace=wrap;html=1;" parent="282" vertex="1">
                    <mxGeometry x="22.5" width="90" height="40" as="geometry"/>
                </mxCell>
                <mxCell id="284" value="INPUT&amp;nbsp;&lt;br&gt;&lt;br&gt;data.users" style="shape=parallelogram;perimeter=parallelogramPerimeter;whiteSpace=wrap;html=1;fixedSize=1;" parent="282" vertex="1">
                    <mxGeometry x="7.5" y="80" width="120" height="60" as="geometry"/>
                </mxCell>
                <mxCell id="285" value="" style="edgeStyle=none;html=1;" parent="282" source="283" target="284" edge="1">
                    <mxGeometry relative="1" as="geometry"/>
                </mxCell>
                <mxCell id="286" value="True" style="edgeStyle=none;html=1;exitX=0.5;exitY=1;exitDx=0;exitDy=0;" parent="282" source="287" edge="1">
                    <mxGeometry relative="1" as="geometry">
                        <mxPoint x="67.08823529411768" y="330" as="targetPoint"/>
                    </mxGeometry>
                </mxCell>
                <mxCell id="287" value="TYPE data.users" style="rhombus;whiteSpace=wrap;html=1;" parent="282" vertex="1">
                    <mxGeometry y="180" width="135" height="100" as="geometry"/>
                </mxCell>
                <mxCell id="288" value="" style="edgeStyle=none;html=1;" parent="282" source="284" target="287" edge="1">
                    <mxGeometry relative="1" as="geometry"/>
                </mxCell>
                <mxCell id="289" value="OUTPUT&lt;br&gt;&lt;br&gt;'Invalid input type data'" style="shape=parallelogram;perimeter=parallelogramPerimeter;whiteSpace=wrap;html=1;fixedSize=1;" parent="282" vertex="1">
                    <mxGeometry x="197.5" y="200" width="120" height="60" as="geometry"/>
                </mxCell>
                <mxCell id="290" value="False" style="edgeStyle=none;html=1;exitX=1;exitY=0.5;exitDx=0;exitDy=0;entryX=0;entryY=0.5;entryDx=0;entryDy=0;" parent="282" source="287" target="289" edge="1">
                    <mxGeometry relative="1" as="geometry"/>
                </mxCell>
                <mxCell id="291" value="Is data.users&lt;br&gt;&amp;nbsp;!Available on DB" style="rhombus;whiteSpace=wrap;html=1;" parent="282" vertex="1">
                    <mxGeometry y="330" width="135" height="100" as="geometry"/>
                </mxCell>
                <mxCell id="292" value="OUTPUT&lt;br&gt;&lt;br&gt;'Data has already inserted!'" style="shape=parallelogram;perimeter=parallelogramPerimeter;whiteSpace=wrap;html=1;fixedSize=1;" parent="282" vertex="1">
                    <mxGeometry x="197.5" y="350" width="120" height="60" as="geometry"/>
                </mxCell>
                <mxCell id="293" value="False" style="edgeStyle=none;html=1;exitX=1;exitY=0.5;exitDx=0;exitDy=0;entryX=0;entryY=0.5;entryDx=0;entryDy=0;" parent="282" source="291" target="292" edge="1">
                    <mxGeometry relative="1" as="geometry"/>
                </mxCell>
                <mxCell id="294" value="B" style="ellipse;whiteSpace=wrap;html=1;aspect=fixed;" parent="282" vertex="1">
                    <mxGeometry x="382.5" y="280" width="40" height="40" as="geometry"/>
                </mxCell>
                <mxCell id="295" style="edgeStyle=none;html=1;exitX=1;exitY=0.5;exitDx=0;exitDy=0;entryX=0.5;entryY=0;entryDx=0;entryDy=0;" parent="282" source="289" target="294" edge="1">
                    <mxGeometry relative="1" as="geometry">
                        <Array as="points">
                            <mxPoint x="402.5" y="230"/>
                        </Array>
                    </mxGeometry>
                </mxCell>
                <mxCell id="296" style="edgeStyle=none;html=1;exitX=1;exitY=0.5;exitDx=0;exitDy=0;entryX=0.5;entryY=1;entryDx=0;entryDy=0;" parent="282" source="292" target="294" edge="1">
                    <mxGeometry relative="1" as="geometry">
                        <Array as="points">
                            <mxPoint x="402.5" y="380"/>
                        </Array>
                    </mxGeometry>
                </mxCell>
                <mxCell id="297" value="MODELS POST users" style="whiteSpace=wrap;html=1;" parent="282" vertex="1">
                    <mxGeometry x="7.5" y="480" width="120" height="60" as="geometry"/>
                </mxCell>
                <mxCell id="298" value="" style="edgeStyle=none;html=1;" parent="282" source="291" target="297" edge="1">
                    <mxGeometry relative="1" as="geometry"/>
                </mxCell>
                <mxCell id="299" value="True" style="edgeLabel;html=1;align=center;verticalAlign=middle;resizable=0;points=[];" parent="298" vertex="1" connectable="0">
                    <mxGeometry x="-0.3153" y="-2" relative="1" as="geometry">
                        <mxPoint y="-1" as="offset"/>
                    </mxGeometry>
                </mxCell>
                <mxCell id="300" value="A" style="ellipse;whiteSpace=wrap;html=1;aspect=fixed;" parent="282" vertex="1">
                    <mxGeometry x="192.5" y="490" width="40" height="40" as="geometry"/>
                </mxCell>
                <mxCell id="301" style="edgeStyle=none;html=1;exitX=1;exitY=0.5;exitDx=0;exitDy=0;entryX=0;entryY=0.5;entryDx=0;entryDy=0;" parent="282" source="297" target="300" edge="1">
                    <mxGeometry relative="1" as="geometry"/>
                </mxCell>
                <mxCell id="302" style="edgeStyle=none;html=1;exitX=0.5;exitY=1;exitDx=0;exitDy=0;" parent="282" source="303" edge="1">
                    <mxGeometry relative="1" as="geometry">
                        <mxPoint x="67.08823529411768" y="680" as="targetPoint"/>
                    </mxGeometry>
                </mxCell>
                <mxCell id="303" value="OUTPUT&lt;br&gt;&lt;br&gt;'Input data success!'" style="shape=parallelogram;perimeter=parallelogramPerimeter;whiteSpace=wrap;html=1;fixedSize=1;" parent="282" vertex="1">
                    <mxGeometry x="7.5" y="580" width="120" height="60" as="geometry"/>
                </mxCell>
                <mxCell id="304" style="edgeStyle=none;html=1;exitX=0.5;exitY=1;exitDx=0;exitDy=0;entryX=0.5;entryY=0;entryDx=0;entryDy=0;" parent="282" source="297" target="303" edge="1">
                    <mxGeometry relative="1" as="geometry"/>
                </mxCell>
                <mxCell id="305" value="C" style="ellipse;whiteSpace=wrap;html=1;aspect=fixed;" parent="282" vertex="1">
                    <mxGeometry x="582.5" y="10" width="40" height="40" as="geometry"/>
                </mxCell>
                <mxCell id="306" value="GET DATA users" style="rhombus;whiteSpace=wrap;html=1;" parent="282" vertex="1">
                    <mxGeometry y="680" width="135" height="100" as="geometry"/>
                </mxCell>
                <mxCell id="307" value="B" style="ellipse;whiteSpace=wrap;html=1;aspect=fixed;" parent="282" vertex="1">
                    <mxGeometry x="192.5" y="710" width="40" height="40" as="geometry"/>
                </mxCell>
                <mxCell id="308" value="False" style="edgeStyle=none;html=1;exitX=1;exitY=0.5;exitDx=0;exitDy=0;entryX=0;entryY=0.5;entryDx=0;entryDy=0;" parent="282" source="306" target="307" edge="1">
                    <mxGeometry relative="1" as="geometry"/>
                </mxCell>
                <mxCell id="309" value="MODELS GET users" style="whiteSpace=wrap;html=1;" parent="282" vertex="1">
                    <mxGeometry x="7.5" y="820" width="120" height="60" as="geometry"/>
                </mxCell>
                <mxCell id="310" value="True" style="edgeStyle=none;html=1;exitX=0.5;exitY=1;exitDx=0;exitDy=0;entryX=0.5;entryY=0;entryDx=0;entryDy=0;" parent="282" source="306" target="309" edge="1">
                    <mxGeometry relative="1" as="geometry"/>
                </mxCell>
                <mxCell id="311" style="edgeStyle=none;html=1;exitX=0;exitY=0.5;exitDx=0;exitDy=0;entryX=1;entryY=0.5;entryDx=0;entryDy=0;" parent="282" source="312" target="309" edge="1">
                    <mxGeometry relative="1" as="geometry"/>
                </mxCell>
                <mxCell id="312" value="A" style="ellipse;whiteSpace=wrap;html=1;aspect=fixed;" parent="282" vertex="1">
                    <mxGeometry x="192.5" y="830" width="40" height="40" as="geometry"/>
                </mxCell>
                <mxCell id="313" style="edgeStyle=none;html=1;exitX=1;exitY=0.5;exitDx=0;exitDy=0;entryX=0;entryY=0.5;entryDx=0;entryDy=0;" parent="282" source="309" target="312" edge="1">
                    <mxGeometry relative="1" as="geometry"/>
                </mxCell>
                <mxCell id="314" value="INPUT&lt;br&gt;&lt;br&gt;id" style="shape=parallelogram;perimeter=parallelogramPerimeter;whiteSpace=wrap;html=1;fixedSize=1;" parent="282" vertex="1">
                    <mxGeometry x="7.5" y="920" width="120" height="60" as="geometry"/>
                </mxCell>
                <mxCell id="315" value="" style="edgeStyle=none;html=1;" parent="282" source="309" target="314" edge="1">
                    <mxGeometry relative="1" as="geometry"/>
                </mxCell>
                <mxCell id="316" value="id != null" style="rhombus;whiteSpace=wrap;html=1;" parent="282" vertex="1">
                    <mxGeometry x="7.5" y="1020" width="125" height="80" as="geometry"/>
                </mxCell>
                <mxCell id="317" value="" style="edgeStyle=none;html=1;" parent="282" source="314" target="316" edge="1">
                    <mxGeometry relative="1" as="geometry"/>
                </mxCell>
                <mxCell id="318" value="users.length &amp;gt; 0" style="rhombus;whiteSpace=wrap;html=1;" parent="282" vertex="1">
                    <mxGeometry x="202.5" y="1020" width="125" height="80" as="geometry"/>
                </mxCell>
                <mxCell id="319" value="False" style="edgeStyle=none;html=1;exitX=1;exitY=0.5;exitDx=0;exitDy=0;entryX=0;entryY=0.5;entryDx=0;entryDy=0;" parent="282" source="316" target="318" edge="1">
                    <mxGeometry relative="1" as="geometry"/>
                </mxCell>
                <mxCell id="320" value="OUTPUT&lt;br&gt;&lt;br&gt;Users List" style="shape=parallelogram;perimeter=parallelogramPerimeter;whiteSpace=wrap;html=1;fixedSize=1;" parent="282" vertex="1">
                    <mxGeometry x="205" y="910" width="120" height="60" as="geometry"/>
                </mxCell>
                <mxCell id="321" value="True" style="edgeStyle=none;html=1;" parent="282" source="318" target="320" edge="1">
                    <mxGeometry relative="1" as="geometry"/>
                </mxCell>
                <mxCell id="322" value="OUTPUT&lt;br&gt;&lt;br&gt;'users list not found'" style="shape=parallelogram;perimeter=parallelogramPerimeter;whiteSpace=wrap;html=1;fixedSize=1;" parent="282" vertex="1">
                    <mxGeometry x="402.5" y="1030" width="120" height="60" as="geometry"/>
                </mxCell>
                <mxCell id="323" value="False" style="edgeStyle=none;html=1;" parent="282" source="318" target="322" edge="1">
                    <mxGeometry relative="1" as="geometry"/>
                </mxCell>
                <mxCell id="324" value="B" style="ellipse;whiteSpace=wrap;html=1;aspect=fixed;" parent="282" vertex="1">
                    <mxGeometry x="442.5" y="920" width="40" height="40" as="geometry"/>
                </mxCell>
                <mxCell id="325" style="edgeStyle=none;html=1;exitX=0.5;exitY=0;exitDx=0;exitDy=0;entryX=0.5;entryY=1;entryDx=0;entryDy=0;" parent="282" source="322" target="324" edge="1">
                    <mxGeometry relative="1" as="geometry"/>
                </mxCell>
                <mxCell id="326" value="users.length &amp;gt; 0" style="rhombus;whiteSpace=wrap;html=1;" parent="282" vertex="1">
                    <mxGeometry x="7.5" y="1140" width="125" height="80" as="geometry"/>
                </mxCell>
                <mxCell id="327" value="True" style="edgeStyle=none;html=1;exitX=0.5;exitY=1;exitDx=0;exitDy=0;entryX=0.5;entryY=0;entryDx=0;entryDy=0;" parent="282" source="316" target="326" edge="1">
                    <mxGeometry relative="1" as="geometry"/>
                </mxCell>
                <mxCell id="328" value="OUTPUT&lt;br&gt;&lt;br&gt;'Data users not found'" style="shape=parallelogram;perimeter=parallelogramPerimeter;whiteSpace=wrap;html=1;fixedSize=1;" parent="282" vertex="1">
                    <mxGeometry x="10" y="1260" width="120" height="60" as="geometry"/>
                </mxCell>
                <mxCell id="329" value="False" style="edgeStyle=none;html=1;entryX=0.5;entryY=0;entryDx=0;entryDy=0;" parent="282" source="326" target="328" edge="1">
                    <mxGeometry relative="1" as="geometry"/>
                </mxCell>
                <mxCell id="330" style="edgeStyle=none;html=1;exitX=1;exitY=0.5;exitDx=0;exitDy=0;" parent="282" source="331" edge="1">
                    <mxGeometry relative="1" as="geometry">
                        <mxPoint x="352.5" y="1180.0588235294117" as="targetPoint"/>
                    </mxGeometry>
                </mxCell>
                <mxCell id="331" value="OUTPUT&lt;br&gt;&lt;br&gt;Data users" style="shape=parallelogram;perimeter=parallelogramPerimeter;whiteSpace=wrap;html=1;fixedSize=1;" parent="282" vertex="1">
                    <mxGeometry x="202.5" y="1150" width="120" height="60" as="geometry"/>
                </mxCell>
                <mxCell id="332" value="True" style="edgeStyle=none;html=1;exitX=1;exitY=0.5;exitDx=0;exitDy=0;entryX=0;entryY=0.5;entryDx=0;entryDy=0;" parent="282" source="326" target="331" edge="1">
                    <mxGeometry relative="1" as="geometry"/>
                </mxCell>
                <mxCell id="333" value="C" style="ellipse;whiteSpace=wrap;html=1;aspect=fixed;" parent="282" vertex="1">
                    <mxGeometry x="352.5" y="1160" width="40" height="40" as="geometry"/>
                </mxCell>
                <mxCell id="334" value="C" style="ellipse;whiteSpace=wrap;html=1;aspect=fixed;" parent="282" vertex="1">
                    <mxGeometry x="245" y="830" width="40" height="40" as="geometry"/>
                </mxCell>
                <mxCell id="335" style="edgeStyle=none;html=1;exitX=0.5;exitY=0;exitDx=0;exitDy=0;entryX=0.5;entryY=1;entryDx=0;entryDy=0;" parent="282" source="320" target="334" edge="1">
                    <mxGeometry relative="1" as="geometry"/>
                </mxCell>
                <mxCell id="336" value="B" style="ellipse;whiteSpace=wrap;html=1;aspect=fixed;" parent="282" vertex="1">
                    <mxGeometry x="182.5" y="1270" width="40" height="40" as="geometry"/>
                </mxCell>
                <mxCell id="337" style="edgeStyle=none;html=1;exitX=1;exitY=0.5;exitDx=0;exitDy=0;entryX=0;entryY=0.5;entryDx=0;entryDy=0;" parent="282" source="328" target="336" edge="1">
                    <mxGeometry relative="1" as="geometry"/>
                </mxCell>
                <mxCell id="338" value="UPDATE DATA users" style="rhombus;whiteSpace=wrap;html=1;" parent="282" vertex="1">
                    <mxGeometry x="535" y="90" width="135" height="100" as="geometry"/>
                </mxCell>
                <mxCell id="339" style="edgeStyle=none;html=1;exitX=0.5;exitY=1;exitDx=0;exitDy=0;" parent="282" source="305" target="338" edge="1">
                    <mxGeometry relative="1" as="geometry"/>
                </mxCell>
                <mxCell id="340" value="B" style="ellipse;whiteSpace=wrap;html=1;aspect=fixed;" parent="282" vertex="1">
                    <mxGeometry x="723.75" y="120" width="40" height="40" as="geometry"/>
                </mxCell>
                <mxCell id="341" value="False" style="edgeStyle=none;html=1;exitX=1;exitY=0.5;exitDx=0;exitDy=0;entryX=0;entryY=0.5;entryDx=0;entryDy=0;" parent="282" source="338" target="340" edge="1">
                    <mxGeometry relative="1" as="geometry"/>
                </mxCell>
                <mxCell id="342" value="INPUT&lt;br&gt;&lt;br&gt;id&lt;br&gt;data.users" style="shape=parallelogram;perimeter=parallelogramPerimeter;whiteSpace=wrap;html=1;fixedSize=1;" parent="282" vertex="1">
                    <mxGeometry x="542.5" y="230" width="120" height="60" as="geometry"/>
                </mxCell>
                <mxCell id="343" value="True" style="edgeStyle=none;html=1;exitX=0.5;exitY=1;exitDx=0;exitDy=0;entryX=0.5;entryY=0;entryDx=0;entryDy=0;" parent="282" source="338" target="342" edge="1">
                    <mxGeometry relative="1" as="geometry"/>
                </mxCell>
                <mxCell id="344" value="TYPE data.users" style="rhombus;whiteSpace=wrap;html=1;" parent="282" vertex="1">
                    <mxGeometry x="535" y="330" width="135" height="100" as="geometry"/>
                </mxCell>
                <mxCell id="345" style="edgeStyle=none;html=1;exitX=0.5;exitY=1;exitDx=0;exitDy=0;entryX=0.5;entryY=0;entryDx=0;entryDy=0;" parent="282" source="342" target="344" edge="1">
                    <mxGeometry relative="1" as="geometry"/>
                </mxCell>
                <mxCell id="346" value="OUTPUT&lt;br&gt;&lt;br&gt;'Invalid input type data'" style="shape=parallelogram;perimeter=parallelogramPerimeter;whiteSpace=wrap;html=1;fixedSize=1;" parent="282" vertex="1">
                    <mxGeometry x="730" y="350" width="120" height="60" as="geometry"/>
                </mxCell>
                <mxCell id="347" value="False" style="edgeStyle=none;html=1;exitX=1;exitY=0.5;exitDx=0;exitDy=0;entryX=0;entryY=0.5;entryDx=0;entryDy=0;" parent="282" source="344" target="346" edge="1">
                    <mxGeometry relative="1" as="geometry"/>
                </mxCell>
                <mxCell id="348" value="B" style="ellipse;whiteSpace=wrap;html=1;aspect=fixed;" parent="282" vertex="1">
                    <mxGeometry x="912.5" y="430" width="40" height="40" as="geometry"/>
                </mxCell>
                <mxCell id="349" style="edgeStyle=none;html=1;exitX=1;exitY=0.5;exitDx=0;exitDy=0;entryX=0.5;entryY=0;entryDx=0;entryDy=0;" parent="282" source="346" target="348" edge="1">
                    <mxGeometry relative="1" as="geometry">
                        <Array as="points">
                            <mxPoint x="932.5" y="380"/>
                        </Array>
                    </mxGeometry>
                </mxCell>
                <mxCell id="350" value="MODELS UPDATE users" style="whiteSpace=wrap;html=1;" parent="282" vertex="1">
                    <mxGeometry x="542.5" y="470" width="120" height="60" as="geometry"/>
                </mxCell>
                <mxCell id="351" value="True" style="edgeStyle=none;html=1;exitX=0.5;exitY=1;exitDx=0;exitDy=0;entryX=0.5;entryY=0;entryDx=0;entryDy=0;" parent="282" source="344" target="350" edge="1">
                    <mxGeometry relative="1" as="geometry"/>
                </mxCell>
                <mxCell id="352" value="A" style="ellipse;whiteSpace=wrap;html=1;aspect=fixed;" parent="282" vertex="1">
                    <mxGeometry x="702.5" y="480" width="40" height="40" as="geometry"/>
                </mxCell>
                <mxCell id="353" style="edgeStyle=none;html=1;exitX=1;exitY=0.5;exitDx=0;exitDy=0;entryX=0;entryY=0.5;entryDx=0;entryDy=0;" parent="282" source="350" target="352" edge="1">
                    <mxGeometry relative="1" as="geometry"/>
                </mxCell>
                <mxCell id="354" value="OUTPUT&lt;br&gt;&lt;br&gt;'Update data success'" style="shape=parallelogram;perimeter=parallelogramPerimeter;whiteSpace=wrap;html=1;fixedSize=1;" parent="282" vertex="1">
                    <mxGeometry x="542.5" y="570" width="120" height="60" as="geometry"/>
                </mxCell>
                <mxCell id="355" style="edgeStyle=none;html=1;exitX=0.5;exitY=1;exitDx=0;exitDy=0;entryX=0.5;entryY=0;entryDx=0;entryDy=0;" parent="282" source="350" target="354" edge="1">
                    <mxGeometry relative="1" as="geometry"/>
                </mxCell>
                <mxCell id="356" value="DELETE DATA users" style="rhombus;whiteSpace=wrap;html=1;" parent="282" vertex="1">
                    <mxGeometry x="535" y="670" width="135" height="100" as="geometry"/>
                </mxCell>
                <mxCell id="357" style="edgeStyle=none;html=1;exitX=0.5;exitY=1;exitDx=0;exitDy=0;entryX=0.5;entryY=0;entryDx=0;entryDy=0;" parent="282" source="354" target="356" edge="1">
                    <mxGeometry relative="1" as="geometry"/>
                </mxCell>
                <mxCell id="358" value="B" style="ellipse;whiteSpace=wrap;html=1;aspect=fixed;" parent="282" vertex="1">
                    <mxGeometry x="730" y="700" width="40" height="40" as="geometry"/>
                </mxCell>
                <mxCell id="359" value="False" style="edgeStyle=none;html=1;exitX=1;exitY=0.5;exitDx=0;exitDy=0;entryX=0;entryY=0.5;entryDx=0;entryDy=0;" parent="282" source="356" target="358" edge="1">
                    <mxGeometry relative="1" as="geometry"/>
                </mxCell>
                <mxCell id="360" value="INPUT&lt;br&gt;&lt;br&gt;id" style="shape=parallelogram;perimeter=parallelogramPerimeter;whiteSpace=wrap;html=1;fixedSize=1;" parent="282" vertex="1">
                    <mxGeometry x="542.5" y="810" width="120" height="60" as="geometry"/>
                </mxCell>
                <mxCell id="361" value="True" style="edgeStyle=none;html=1;exitX=0.5;exitY=1;exitDx=0;exitDy=0;" parent="282" source="356" target="360" edge="1">
                    <mxGeometry relative="1" as="geometry"/>
                </mxCell>
                <mxCell id="362" value="MODELS DELETE users" style="whiteSpace=wrap;html=1;" parent="282" vertex="1">
                    <mxGeometry x="542.5" y="900" width="120" height="60" as="geometry"/>
                </mxCell>
                <mxCell id="363" style="edgeStyle=none;html=1;exitX=0.5;exitY=1;exitDx=0;exitDy=0;entryX=0.5;entryY=0;entryDx=0;entryDy=0;" parent="282" source="360" target="362" edge="1">
                    <mxGeometry relative="1" as="geometry"/>
                </mxCell>
                <mxCell id="364" value="A" style="ellipse;whiteSpace=wrap;html=1;aspect=fixed;" parent="282" vertex="1">
                    <mxGeometry x="702.5" y="910" width="40" height="40" as="geometry"/>
                </mxCell>
                <mxCell id="365" style="edgeStyle=none;html=1;exitX=1;exitY=0.5;exitDx=0;exitDy=0;entryX=0;entryY=0.5;entryDx=0;entryDy=0;" parent="282" source="362" target="364" edge="1">
                    <mxGeometry relative="1" as="geometry"/>
                </mxCell>
                <mxCell id="366" value="OUTPUT&lt;br&gt;&lt;br&gt;'Delete data &lt;br&gt;success!'" style="shape=parallelogram;perimeter=parallelogramPerimeter;whiteSpace=wrap;html=1;fixedSize=1;" parent="282" vertex="1">
                    <mxGeometry x="542.5" y="1000" width="120" height="60" as="geometry"/>
                </mxCell>
                <mxCell id="367" style="edgeStyle=none;html=1;exitX=0.5;exitY=1;exitDx=0;exitDy=0;entryX=0.5;entryY=0;entryDx=0;entryDy=0;" parent="282" source="362" target="366" edge="1">
                    <mxGeometry relative="1" as="geometry"/>
                </mxCell>
                <mxCell id="368" value="B" style="ellipse;whiteSpace=wrap;html=1;aspect=fixed;" parent="282" vertex="1">
                    <mxGeometry x="702.5" y="1010" width="40" height="40" as="geometry"/>
                </mxCell>
                <mxCell id="369" style="edgeStyle=none;html=1;exitX=1;exitY=0.5;exitDx=0;exitDy=0;entryX=0;entryY=0.5;entryDx=0;entryDy=0;" parent="282" source="366" target="368" edge="1">
                    <mxGeometry relative="1" as="geometry"/>
                </mxCell>
                <mxCell id="370" value="&lt;h1&gt;Flowchart Users&lt;/h1&gt;" style="text;html=1;strokeColor=none;fillColor=none;spacing=5;spacingTop=-20;whiteSpace=wrap;overflow=hidden;rounded=0;align=center;" parent="1" vertex="1">
                    <mxGeometry x="1160" y="20" width="150" height="70" as="geometry"/>
                </mxCell>
                <mxCell id="371" value="&lt;h1&gt;Flowchart Categories&lt;/h1&gt;" style="text;html=1;strokeColor=none;fillColor=none;spacing=5;spacingTop=-20;whiteSpace=wrap;overflow=hidden;rounded=0;align=center;" parent="1" vertex="1">
                    <mxGeometry x="160" y="1480" width="150" height="70" as="geometry"/>
                </mxCell>
                <mxCell id="136" value="START" style="ellipse;whiteSpace=wrap;html=1;" parent="1" vertex="1">
                    <mxGeometry x="190" y="100" width="90" height="40" as="geometry"/>
                </mxCell>
                <mxCell id="139" value="INPUT&amp;nbsp;&lt;br&gt;&lt;br&gt;data.vehicles" style="shape=parallelogram;perimeter=parallelogramPerimeter;whiteSpace=wrap;html=1;fixedSize=1;" parent="1" vertex="1">
                    <mxGeometry x="175" y="180" width="120" height="60" as="geometry"/>
                </mxCell>
                <mxCell id="140" value="" style="edgeStyle=none;html=1;" parent="1" source="136" target="139" edge="1">
                    <mxGeometry relative="1" as="geometry"/>
                </mxCell>
                <mxCell id="149" value="True" style="edgeStyle=none;html=1;exitX=0.5;exitY=1;exitDx=0;exitDy=0;" parent="1" source="141" edge="1">
                    <mxGeometry relative="1" as="geometry">
                        <mxPoint x="234.58823529411768" y="430" as="targetPoint"/>
                    </mxGeometry>
                </mxCell>
                <mxCell id="141" value="TYPE data.vehicles" style="rhombus;whiteSpace=wrap;html=1;" parent="1" vertex="1">
                    <mxGeometry x="167.5" y="280" width="135" height="100" as="geometry"/>
                </mxCell>
                <mxCell id="142" value="" style="edgeStyle=none;html=1;" parent="1" source="139" target="141" edge="1">
                    <mxGeometry relative="1" as="geometry"/>
                </mxCell>
                <mxCell id="144" value="OUTPUT&lt;br&gt;&lt;br&gt;'Invalid input type data'" style="shape=parallelogram;perimeter=parallelogramPerimeter;whiteSpace=wrap;html=1;fixedSize=1;" parent="1" vertex="1">
                    <mxGeometry x="365" y="300" width="120" height="60" as="geometry"/>
                </mxCell>
                <mxCell id="146" value="False" style="edgeStyle=none;html=1;exitX=1;exitY=0.5;exitDx=0;exitDy=0;entryX=0;entryY=0.5;entryDx=0;entryDy=0;" parent="1" source="141" target="144" edge="1">
                    <mxGeometry relative="1" as="geometry"/>
                </mxCell>
                <mxCell id="150" value="Is data.vehicle&lt;br&gt;&amp;nbsp;!Available on DB" style="rhombus;whiteSpace=wrap;html=1;" parent="1" vertex="1">
                    <mxGeometry x="167.5" y="430" width="135" height="100" as="geometry"/>
                </mxCell>
                <mxCell id="152" value="OUTPUT&lt;br&gt;&lt;br&gt;'Data has already inserted!'" style="shape=parallelogram;perimeter=parallelogramPerimeter;whiteSpace=wrap;html=1;fixedSize=1;" parent="1" vertex="1">
                    <mxGeometry x="365" y="450" width="120" height="60" as="geometry"/>
                </mxCell>
                <mxCell id="155" value="False" style="edgeStyle=none;html=1;exitX=1;exitY=0.5;exitDx=0;exitDy=0;entryX=0;entryY=0.5;entryDx=0;entryDy=0;" parent="1" source="150" target="152" edge="1">
                    <mxGeometry relative="1" as="geometry"/>
                </mxCell>
                <mxCell id="156" value="B" style="ellipse;whiteSpace=wrap;html=1;aspect=fixed;" parent="1" vertex="1">
                    <mxGeometry x="550" y="380" width="40" height="40" as="geometry"/>
                </mxCell>
                <mxCell id="212" style="edgeStyle=none;html=1;exitX=1;exitY=0.5;exitDx=0;exitDy=0;entryX=0.5;entryY=0;entryDx=0;entryDy=0;" parent="1" source="144" target="156" edge="1">
                    <mxGeometry relative="1" as="geometry">
                        <Array as="points">
                            <mxPoint x="570" y="330"/>
                        </Array>
                    </mxGeometry>
                </mxCell>
                <mxCell id="213" style="edgeStyle=none;html=1;exitX=1;exitY=0.5;exitDx=0;exitDy=0;entryX=0.5;entryY=1;entryDx=0;entryDy=0;" parent="1" source="152" target="156" edge="1">
                    <mxGeometry relative="1" as="geometry">
                        <Array as="points">
                            <mxPoint x="570" y="480"/>
                        </Array>
                    </mxGeometry>
                </mxCell>
                <mxCell id="159" value="MODELS POST vehicles" style="whiteSpace=wrap;html=1;" parent="1" vertex="1">
                    <mxGeometry x="175" y="580" width="120" height="60" as="geometry"/>
                </mxCell>
                <mxCell id="160" value="" style="edgeStyle=none;html=1;" parent="1" source="150" target="159" edge="1">
                    <mxGeometry relative="1" as="geometry"/>
                </mxCell>
                <mxCell id="161" value="True" style="edgeLabel;html=1;align=center;verticalAlign=middle;resizable=0;points=[];" parent="160" vertex="1" connectable="0">
                    <mxGeometry x="-0.3153" y="-2" relative="1" as="geometry">
                        <mxPoint y="-1" as="offset"/>
                    </mxGeometry>
                </mxCell>
                <mxCell id="166" value="A" style="ellipse;whiteSpace=wrap;html=1;aspect=fixed;" parent="1" vertex="1">
                    <mxGeometry x="360" y="590" width="40" height="40" as="geometry"/>
                </mxCell>
                <mxCell id="167" style="edgeStyle=none;html=1;exitX=1;exitY=0.5;exitDx=0;exitDy=0;entryX=0;entryY=0.5;entryDx=0;entryDy=0;" parent="1" source="159" target="166" edge="1">
                    <mxGeometry relative="1" as="geometry"/>
                </mxCell>
                <mxCell id="183" style="edgeStyle=none;html=1;exitX=0.5;exitY=1;exitDx=0;exitDy=0;" parent="1" source="178" edge="1">
                    <mxGeometry relative="1" as="geometry">
                        <mxPoint x="234.58823529411768" y="780" as="targetPoint"/>
                    </mxGeometry>
                </mxCell>
                <mxCell id="178" value="OUTPUT&lt;br&gt;&lt;br&gt;'Input data success!'" style="shape=parallelogram;perimeter=parallelogramPerimeter;whiteSpace=wrap;html=1;fixedSize=1;" parent="1" vertex="1">
                    <mxGeometry x="175" y="680" width="120" height="60" as="geometry"/>
                </mxCell>
                <mxCell id="179" style="edgeStyle=none;html=1;exitX=0.5;exitY=1;exitDx=0;exitDy=0;entryX=0.5;entryY=0;entryDx=0;entryDy=0;" parent="1" source="159" target="178" edge="1">
                    <mxGeometry relative="1" as="geometry"/>
                </mxCell>
                <mxCell id="227" value="C" style="ellipse;whiteSpace=wrap;html=1;aspect=fixed;" parent="1" vertex="1">
                    <mxGeometry x="750" y="110" width="40" height="40" as="geometry"/>
                </mxCell>
                <mxCell id="245" value="GET DATA vehicles" style="rhombus;whiteSpace=wrap;html=1;" parent="1" vertex="1">
                    <mxGeometry x="167.5" y="780" width="135" height="100" as="geometry"/>
                </mxCell>
                <mxCell id="247" value="B" style="ellipse;whiteSpace=wrap;html=1;aspect=fixed;" parent="1" vertex="1">
                    <mxGeometry x="360" y="810" width="40" height="40" as="geometry"/>
                </mxCell>
                <mxCell id="248" value="False" style="edgeStyle=none;html=1;exitX=1;exitY=0.5;exitDx=0;exitDy=0;entryX=0;entryY=0.5;entryDx=0;entryDy=0;" parent="1" source="245" target="247" edge="1">
                    <mxGeometry relative="1" as="geometry"/>
                </mxCell>
                <mxCell id="184" value="MODELS GET vehicles" style="whiteSpace=wrap;html=1;" parent="1" vertex="1">
                    <mxGeometry x="175" y="920" width="120" height="60" as="geometry"/>
                </mxCell>
                <mxCell id="249" value="True" style="edgeStyle=none;html=1;exitX=0.5;exitY=1;exitDx=0;exitDy=0;entryX=0.5;entryY=0;entryDx=0;entryDy=0;" parent="1" source="245" target="184" edge="1">
                    <mxGeometry relative="1" as="geometry"/>
                </mxCell>
                <mxCell id="188" style="edgeStyle=none;html=1;exitX=0;exitY=0.5;exitDx=0;exitDy=0;entryX=1;entryY=0.5;entryDx=0;entryDy=0;" parent="1" source="185" target="184" edge="1">
                    <mxGeometry relative="1" as="geometry"/>
                </mxCell>
                <mxCell id="185" value="A" style="ellipse;whiteSpace=wrap;html=1;aspect=fixed;" parent="1" vertex="1">
                    <mxGeometry x="360" y="930" width="40" height="40" as="geometry"/>
                </mxCell>
                <mxCell id="187" style="edgeStyle=none;html=1;exitX=1;exitY=0.5;exitDx=0;exitDy=0;entryX=0;entryY=0.5;entryDx=0;entryDy=0;" parent="1" source="184" target="185" edge="1">
                    <mxGeometry relative="1" as="geometry"/>
                </mxCell>
                <mxCell id="190" value="INPUT&lt;br&gt;&lt;br&gt;id" style="shape=parallelogram;perimeter=parallelogramPerimeter;whiteSpace=wrap;html=1;fixedSize=1;" parent="1" vertex="1">
                    <mxGeometry x="175" y="1020" width="120" height="60" as="geometry"/>
                </mxCell>
                <mxCell id="191" value="" style="edgeStyle=none;html=1;" parent="1" source="184" target="190" edge="1">
                    <mxGeometry relative="1" as="geometry"/>
                </mxCell>
                <mxCell id="193" value="id != null" style="rhombus;whiteSpace=wrap;html=1;" parent="1" vertex="1">
                    <mxGeometry x="175" y="1120" width="125" height="80" as="geometry"/>
                </mxCell>
                <mxCell id="194" value="" style="edgeStyle=none;html=1;" parent="1" source="190" target="193" edge="1">
                    <mxGeometry relative="1" as="geometry"/>
                </mxCell>
                <mxCell id="200" value="vehicles.length &amp;gt; 0" style="rhombus;whiteSpace=wrap;html=1;" parent="1" vertex="1">
                    <mxGeometry x="370" y="1120" width="125" height="80" as="geometry"/>
                </mxCell>
                <mxCell id="201" value="False" style="edgeStyle=none;html=1;exitX=1;exitY=0.5;exitDx=0;exitDy=0;entryX=0;entryY=0.5;entryDx=0;entryDy=0;" parent="1" source="193" target="200" edge="1">
                    <mxGeometry relative="1" as="geometry"/>
                </mxCell>
                <mxCell id="202" value="OUTPUT&lt;br&gt;&lt;br&gt;Vehicles List" style="shape=parallelogram;perimeter=parallelogramPerimeter;whiteSpace=wrap;html=1;fixedSize=1;" parent="1" vertex="1">
                    <mxGeometry x="372.5" y="1010" width="120" height="60" as="geometry"/>
                </mxCell>
                <mxCell id="203" value="True" style="edgeStyle=none;html=1;" parent="1" source="200" target="202" edge="1">
                    <mxGeometry relative="1" as="geometry"/>
                </mxCell>
                <mxCell id="204" value="OUTPUT&lt;br&gt;&lt;br&gt;'Vehicles list not found'" style="shape=parallelogram;perimeter=parallelogramPerimeter;whiteSpace=wrap;html=1;fixedSize=1;" parent="1" vertex="1">
                    <mxGeometry x="570" y="1130" width="120" height="60" as="geometry"/>
                </mxCell>
                <mxCell id="205" value="False" style="edgeStyle=none;html=1;" parent="1" source="200" target="204" edge="1">
                    <mxGeometry relative="1" as="geometry"/>
                </mxCell>
                <mxCell id="206" value="B" style="ellipse;whiteSpace=wrap;html=1;aspect=fixed;" parent="1" vertex="1">
                    <mxGeometry x="610" y="1020" width="40" height="40" as="geometry"/>
                </mxCell>
                <mxCell id="209" style="edgeStyle=none;html=1;exitX=0.5;exitY=0;exitDx=0;exitDy=0;entryX=0.5;entryY=1;entryDx=0;entryDy=0;" parent="1" source="204" target="206" edge="1">
                    <mxGeometry relative="1" as="geometry"/>
                </mxCell>
                <mxCell id="215" value="vehicles.length &amp;gt; 0" style="rhombus;whiteSpace=wrap;html=1;" parent="1" vertex="1">
                    <mxGeometry x="175" y="1240" width="125" height="80" as="geometry"/>
                </mxCell>
                <mxCell id="216" value="True" style="edgeStyle=none;html=1;exitX=0.5;exitY=1;exitDx=0;exitDy=0;entryX=0.5;entryY=0;entryDx=0;entryDy=0;" parent="1" source="193" target="215" edge="1">
                    <mxGeometry relative="1" as="geometry"/>
                </mxCell>
                <mxCell id="217" value="OUTPUT&lt;br&gt;&lt;br&gt;'Data vehicle not found'" style="shape=parallelogram;perimeter=parallelogramPerimeter;whiteSpace=wrap;html=1;fixedSize=1;" parent="1" vertex="1">
                    <mxGeometry x="177.5" y="1360" width="120" height="60" as="geometry"/>
                </mxCell>
                <mxCell id="218" value="False" style="edgeStyle=none;html=1;entryX=0.5;entryY=0;entryDx=0;entryDy=0;" parent="1" source="215" target="217" edge="1">
                    <mxGeometry relative="1" as="geometry"/>
                </mxCell>
                <mxCell id="221" style="edgeStyle=none;html=1;exitX=1;exitY=0.5;exitDx=0;exitDy=0;" parent="1" source="219" edge="1">
                    <mxGeometry relative="1" as="geometry">
                        <mxPoint x="520" y="1280.0588235294117" as="targetPoint"/>
                    </mxGeometry>
                </mxCell>
                <mxCell id="219" value="OUTPUT&lt;br&gt;&lt;br&gt;Data Vehicle" style="shape=parallelogram;perimeter=parallelogramPerimeter;whiteSpace=wrap;html=1;fixedSize=1;" parent="1" vertex="1">
                    <mxGeometry x="370" y="1250" width="120" height="60" as="geometry"/>
                </mxCell>
                <mxCell id="220" value="True" style="edgeStyle=none;html=1;exitX=1;exitY=0.5;exitDx=0;exitDy=0;entryX=0;entryY=0.5;entryDx=0;entryDy=0;" parent="1" source="215" target="219" edge="1">
                    <mxGeometry relative="1" as="geometry"/>
                </mxCell>
                <mxCell id="222" value="C" style="ellipse;whiteSpace=wrap;html=1;aspect=fixed;" parent="1" vertex="1">
                    <mxGeometry x="520" y="1260" width="40" height="40" as="geometry"/>
                </mxCell>
                <mxCell id="223" value="C" style="ellipse;whiteSpace=wrap;html=1;aspect=fixed;" parent="1" vertex="1">
                    <mxGeometry x="412.5" y="930" width="40" height="40" as="geometry"/>
                </mxCell>
                <mxCell id="224" style="edgeStyle=none;html=1;exitX=0.5;exitY=0;exitDx=0;exitDy=0;entryX=0.5;entryY=1;entryDx=0;entryDy=0;" parent="1" source="202" target="223" edge="1">
                    <mxGeometry relative="1" as="geometry"/>
                </mxCell>
                <mxCell id="225" value="B" style="ellipse;whiteSpace=wrap;html=1;aspect=fixed;" parent="1" vertex="1">
                    <mxGeometry x="350" y="1370" width="40" height="40" as="geometry"/>
                </mxCell>
                <mxCell id="226" style="edgeStyle=none;html=1;exitX=1;exitY=0.5;exitDx=0;exitDy=0;entryX=0;entryY=0.5;entryDx=0;entryDy=0;" parent="1" source="217" target="225" edge="1">
                    <mxGeometry relative="1" as="geometry"/>
                </mxCell>
                <mxCell id="252" value="UPDATE DATA vehicles" style="rhombus;whiteSpace=wrap;html=1;" parent="1" vertex="1">
                    <mxGeometry x="702.5" y="190" width="135" height="100" as="geometry"/>
                </mxCell>
                <mxCell id="253" style="edgeStyle=none;html=1;exitX=0.5;exitY=1;exitDx=0;exitDy=0;" parent="1" source="227" target="252" edge="1">
                    <mxGeometry relative="1" as="geometry"/>
                </mxCell>
                <mxCell id="256" value="B" style="ellipse;whiteSpace=wrap;html=1;aspect=fixed;" parent="1" vertex="1">
                    <mxGeometry x="891.25" y="220" width="40" height="40" as="geometry"/>
                </mxCell>
                <mxCell id="257" value="False" style="edgeStyle=none;html=1;exitX=1;exitY=0.5;exitDx=0;exitDy=0;entryX=0;entryY=0.5;entryDx=0;entryDy=0;" parent="1" source="252" target="256" edge="1">
                    <mxGeometry relative="1" as="geometry"/>
                </mxCell>
                <mxCell id="228" value="INPUT&lt;br&gt;&lt;br&gt;id&lt;br&gt;data.vehicles" style="shape=parallelogram;perimeter=parallelogramPerimeter;whiteSpace=wrap;html=1;fixedSize=1;" parent="1" vertex="1">
                    <mxGeometry x="710" y="330" width="120" height="60" as="geometry"/>
                </mxCell>
                <mxCell id="254" value="True" style="edgeStyle=none;html=1;exitX=0.5;exitY=1;exitDx=0;exitDy=0;entryX=0.5;entryY=0;entryDx=0;entryDy=0;" parent="1" source="252" target="228" edge="1">
                    <mxGeometry relative="1" as="geometry"/>
                </mxCell>
                <mxCell id="232" value="TYPE data.vehicles" style="rhombus;whiteSpace=wrap;html=1;" parent="1" vertex="1">
                    <mxGeometry x="702.5" y="430" width="135" height="100" as="geometry"/>
                </mxCell>
                <mxCell id="235" style="edgeStyle=none;html=1;exitX=0.5;exitY=1;exitDx=0;exitDy=0;entryX=0.5;entryY=0;entryDx=0;entryDy=0;" parent="1" source="228" target="232" edge="1">
                    <mxGeometry relative="1" as="geometry"/>
                </mxCell>
                <mxCell id="234" value="OUTPUT&lt;br&gt;&lt;br&gt;'Invalid input type data'" style="shape=parallelogram;perimeter=parallelogramPerimeter;whiteSpace=wrap;html=1;fixedSize=1;" parent="1" vertex="1">
                    <mxGeometry x="897.5" y="450" width="120" height="60" as="geometry"/>
                </mxCell>
                <mxCell id="230" value="False" style="edgeStyle=none;html=1;exitX=1;exitY=0.5;exitDx=0;exitDy=0;entryX=0;entryY=0.5;entryDx=0;entryDy=0;" parent="1" source="232" target="234" edge="1">
                    <mxGeometry relative="1" as="geometry"/>
                </mxCell>
                <mxCell id="236" value="B" style="ellipse;whiteSpace=wrap;html=1;aspect=fixed;" parent="1" vertex="1">
                    <mxGeometry x="1080" y="530" width="40" height="40" as="geometry"/>
                </mxCell>
                <mxCell id="237" style="edgeStyle=none;html=1;exitX=1;exitY=0.5;exitDx=0;exitDy=0;entryX=0.5;entryY=0;entryDx=0;entryDy=0;" parent="1" source="234" target="236" edge="1">
                    <mxGeometry relative="1" as="geometry">
                        <Array as="points">
                            <mxPoint x="1100" y="480"/>
                        </Array>
                    </mxGeometry>
                </mxCell>
                <mxCell id="238" value="MODELS UPDATE vehicles" style="whiteSpace=wrap;html=1;" parent="1" vertex="1">
                    <mxGeometry x="710" y="570" width="120" height="60" as="geometry"/>
                </mxCell>
                <mxCell id="239" value="True" style="edgeStyle=none;html=1;exitX=0.5;exitY=1;exitDx=0;exitDy=0;entryX=0.5;entryY=0;entryDx=0;entryDy=0;" parent="1" source="232" target="238" edge="1">
                    <mxGeometry relative="1" as="geometry"/>
                </mxCell>
                <mxCell id="240" value="A" style="ellipse;whiteSpace=wrap;html=1;aspect=fixed;" parent="1" vertex="1">
                    <mxGeometry x="870" y="580" width="40" height="40" as="geometry"/>
                </mxCell>
                <mxCell id="241" style="edgeStyle=none;html=1;exitX=1;exitY=0.5;exitDx=0;exitDy=0;entryX=0;entryY=0.5;entryDx=0;entryDy=0;" parent="1" source="238" target="240" edge="1">
                    <mxGeometry relative="1" as="geometry"/>
                </mxCell>
                <mxCell id="242" value="OUTPUT&lt;br&gt;&lt;br&gt;'Update data success'" style="shape=parallelogram;perimeter=parallelogramPerimeter;whiteSpace=wrap;html=1;fixedSize=1;" parent="1" vertex="1">
                    <mxGeometry x="710" y="670" width="120" height="60" as="geometry"/>
                </mxCell>
                <mxCell id="243" style="edgeStyle=none;html=1;exitX=0.5;exitY=1;exitDx=0;exitDy=0;entryX=0.5;entryY=0;entryDx=0;entryDy=0;" parent="1" source="238" target="242" edge="1">
                    <mxGeometry relative="1" as="geometry"/>
                </mxCell>
                <mxCell id="259" value="DELETE DATA vehicles" style="rhombus;whiteSpace=wrap;html=1;" parent="1" vertex="1">
                    <mxGeometry x="702.5" y="770" width="135" height="100" as="geometry"/>
                </mxCell>
                <mxCell id="260" style="edgeStyle=none;html=1;exitX=0.5;exitY=1;exitDx=0;exitDy=0;entryX=0.5;entryY=0;entryDx=0;entryDy=0;" parent="1" source="242" target="259" edge="1">
                    <mxGeometry relative="1" as="geometry"/>
                </mxCell>
                <mxCell id="262" value="B" style="ellipse;whiteSpace=wrap;html=1;aspect=fixed;" parent="1" vertex="1">
                    <mxGeometry x="897.5" y="800" width="40" height="40" as="geometry"/>
                </mxCell>
                <mxCell id="263" value="False" style="edgeStyle=none;html=1;exitX=1;exitY=0.5;exitDx=0;exitDy=0;entryX=0;entryY=0.5;entryDx=0;entryDy=0;" parent="1" source="259" target="262" edge="1">
                    <mxGeometry relative="1" as="geometry"/>
                </mxCell>
                <mxCell id="265" value="INPUT&lt;br&gt;&lt;br&gt;id" style="shape=parallelogram;perimeter=parallelogramPerimeter;whiteSpace=wrap;html=1;fixedSize=1;" parent="1" vertex="1">
                    <mxGeometry x="710" y="910" width="120" height="60" as="geometry"/>
                </mxCell>
                <mxCell id="278" value="True" style="edgeStyle=none;html=1;exitX=0.5;exitY=1;exitDx=0;exitDy=0;" parent="1" source="259" target="265" edge="1">
                    <mxGeometry relative="1" as="geometry"/>
                </mxCell>
                <mxCell id="266" value="MODELS DELETE vehicles" style="whiteSpace=wrap;html=1;" parent="1" vertex="1">
                    <mxGeometry x="710" y="1000" width="120" height="60" as="geometry"/>
                </mxCell>
                <mxCell id="267" style="edgeStyle=none;html=1;exitX=0.5;exitY=1;exitDx=0;exitDy=0;entryX=0.5;entryY=0;entryDx=0;entryDy=0;" parent="1" source="265" target="266" edge="1">
                    <mxGeometry relative="1" as="geometry"/>
                </mxCell>
                <mxCell id="269" value="A" style="ellipse;whiteSpace=wrap;html=1;aspect=fixed;" parent="1" vertex="1">
                    <mxGeometry x="870" y="1010" width="40" height="40" as="geometry"/>
                </mxCell>
                <mxCell id="270" style="edgeStyle=none;html=1;exitX=1;exitY=0.5;exitDx=0;exitDy=0;entryX=0;entryY=0.5;entryDx=0;entryDy=0;" parent="1" source="266" target="269" edge="1">
                    <mxGeometry relative="1" as="geometry"/>
                </mxCell>
                <mxCell id="271" value="OUTPUT&lt;br&gt;&lt;br&gt;'Delete data &lt;br&gt;success!'" style="shape=parallelogram;perimeter=parallelogramPerimeter;whiteSpace=wrap;html=1;fixedSize=1;" parent="1" vertex="1">
                    <mxGeometry x="710" y="1100" width="120" height="60" as="geometry"/>
                </mxCell>
                <mxCell id="272" style="edgeStyle=none;html=1;exitX=0.5;exitY=1;exitDx=0;exitDy=0;entryX=0.5;entryY=0;entryDx=0;entryDy=0;" parent="1" source="266" target="271" edge="1">
                    <mxGeometry relative="1" as="geometry"/>
                </mxCell>
                <mxCell id="274" value="B" style="ellipse;whiteSpace=wrap;html=1;aspect=fixed;" parent="1" vertex="1">
                    <mxGeometry x="870" y="1110" width="40" height="40" as="geometry"/>
                </mxCell>
                <mxCell id="275" style="edgeStyle=none;html=1;exitX=1;exitY=0.5;exitDx=0;exitDy=0;entryX=0;entryY=0.5;entryDx=0;entryDy=0;" parent="1" source="271" target="274" edge="1">
                    <mxGeometry relative="1" as="geometry"/>
                </mxCell>
                <mxCell id="470" value="c" style="group" parent="1" vertex="1" connectable="0">
                    <mxGeometry x="160" y="1560" width="766.25" height="1171" as="geometry"/>
                </mxCell>
                <mxCell id="374" value="INPUT&amp;nbsp;&lt;br&gt;&lt;br&gt;data.categories" style="shape=parallelogram;perimeter=parallelogramPerimeter;whiteSpace=wrap;html=1;fixedSize=1;" parent="470" vertex="1">
                    <mxGeometry x="7.5" y="80" width="120" height="60" as="geometry"/>
                </mxCell>
                <mxCell id="375" value="" style="edgeStyle=none;html=1;" parent="470" source="373" target="374" edge="1">
                    <mxGeometry relative="1" as="geometry"/>
                </mxCell>
                <mxCell id="373" value="START" style="ellipse;whiteSpace=wrap;html=1;" parent="470" vertex="1">
                    <mxGeometry x="22.5" width="90" height="40" as="geometry"/>
                </mxCell>
                <mxCell id="381" value="Is data.categories&lt;br&gt;&amp;nbsp;!Available on DB" style="rhombus;whiteSpace=wrap;html=1;" parent="470" vertex="1">
                    <mxGeometry y="181" width="135" height="100" as="geometry"/>
                </mxCell>
                <mxCell id="464" style="edgeStyle=none;html=1;exitX=0.5;exitY=1;exitDx=0;exitDy=0;entryX=0.5;entryY=0;entryDx=0;entryDy=0;" parent="470" source="374" target="381" edge="1">
                    <mxGeometry relative="1" as="geometry"/>
                </mxCell>
                <mxCell id="382" value="OUTPUT&lt;br&gt;&lt;br&gt;'Data has already inserted!'" style="shape=parallelogram;perimeter=parallelogramPerimeter;whiteSpace=wrap;html=1;fixedSize=1;" parent="470" vertex="1">
                    <mxGeometry x="197.5" y="201" width="120" height="60" as="geometry"/>
                </mxCell>
                <mxCell id="383" value="False" style="edgeStyle=none;html=1;exitX=1;exitY=0.5;exitDx=0;exitDy=0;entryX=0;entryY=0.5;entryDx=0;entryDy=0;" parent="470" source="381" target="382" edge="1">
                    <mxGeometry relative="1" as="geometry"/>
                </mxCell>
                <mxCell id="384" value="B" style="ellipse;whiteSpace=wrap;html=1;aspect=fixed;" parent="470" vertex="1">
                    <mxGeometry x="382.5" y="211" width="40" height="40" as="geometry"/>
                </mxCell>
                <mxCell id="462" style="edgeStyle=none;html=1;exitX=1;exitY=0.5;exitDx=0;exitDy=0;entryX=0;entryY=0.5;entryDx=0;entryDy=0;" parent="470" source="382" target="384" edge="1">
                    <mxGeometry relative="1" as="geometry"/>
                </mxCell>
                <mxCell id="387" value="MODELS POST categories" style="whiteSpace=wrap;html=1;" parent="470" vertex="1">
                    <mxGeometry x="7.5" y="331" width="120" height="60" as="geometry"/>
                </mxCell>
                <mxCell id="388" value="" style="edgeStyle=none;html=1;" parent="470" source="381" target="387" edge="1">
                    <mxGeometry relative="1" as="geometry"/>
                </mxCell>
                <mxCell id="389" value="True" style="edgeLabel;html=1;align=center;verticalAlign=middle;resizable=0;points=[];" parent="388" vertex="1" connectable="0">
                    <mxGeometry x="-0.3153" y="-2" relative="1" as="geometry">
                        <mxPoint y="-1" as="offset"/>
                    </mxGeometry>
                </mxCell>
                <mxCell id="390" value="A" style="ellipse;whiteSpace=wrap;html=1;aspect=fixed;" parent="470" vertex="1">
                    <mxGeometry x="192.5" y="341" width="40" height="40" as="geometry"/>
                </mxCell>
                <mxCell id="391" style="edgeStyle=none;html=1;exitX=1;exitY=0.5;exitDx=0;exitDy=0;entryX=0;entryY=0.5;entryDx=0;entryDy=0;" parent="470" source="387" target="390" edge="1">
                    <mxGeometry relative="1" as="geometry"/>
                </mxCell>
                <mxCell id="392" style="edgeStyle=none;html=1;exitX=0.5;exitY=1;exitDx=0;exitDy=0;" parent="470" source="393" edge="1">
                    <mxGeometry relative="1" as="geometry">
                        <mxPoint x="67.08823529411768" y="531" as="targetPoint"/>
                    </mxGeometry>
                </mxCell>
                <mxCell id="393" value="OUTPUT&lt;br&gt;&lt;br&gt;'Input data success!'" style="shape=parallelogram;perimeter=parallelogramPerimeter;whiteSpace=wrap;html=1;fixedSize=1;" parent="470" vertex="1">
                    <mxGeometry x="7.5" y="431" width="120" height="60" as="geometry"/>
                </mxCell>
                <mxCell id="394" style="edgeStyle=none;html=1;exitX=0.5;exitY=1;exitDx=0;exitDy=0;entryX=0.5;entryY=0;entryDx=0;entryDy=0;" parent="470" source="387" target="393" edge="1">
                    <mxGeometry relative="1" as="geometry"/>
                </mxCell>
                <mxCell id="396" value="GET DATA categories" style="rhombus;whiteSpace=wrap;html=1;" parent="470" vertex="1">
                    <mxGeometry y="531" width="135" height="100" as="geometry"/>
                </mxCell>
                <mxCell id="397" value="B" style="ellipse;whiteSpace=wrap;html=1;aspect=fixed;" parent="470" vertex="1">
                    <mxGeometry x="192.5" y="561" width="40" height="40" as="geometry"/>
                </mxCell>
                <mxCell id="398" value="False" style="edgeStyle=none;html=1;exitX=1;exitY=0.5;exitDx=0;exitDy=0;entryX=0;entryY=0.5;entryDx=0;entryDy=0;" parent="470" source="396" target="397" edge="1">
                    <mxGeometry relative="1" as="geometry"/>
                </mxCell>
                <mxCell id="399" value="MODELS GET categories" style="whiteSpace=wrap;html=1;" parent="470" vertex="1">
                    <mxGeometry x="7.5" y="671" width="120" height="60" as="geometry"/>
                </mxCell>
                <mxCell id="400" value="True" style="edgeStyle=none;html=1;exitX=0.5;exitY=1;exitDx=0;exitDy=0;entryX=0.5;entryY=0;entryDx=0;entryDy=0;" parent="470" source="396" target="399" edge="1">
                    <mxGeometry relative="1" as="geometry"/>
                </mxCell>
                <mxCell id="401" style="edgeStyle=none;html=1;exitX=0;exitY=0.5;exitDx=0;exitDy=0;entryX=1;entryY=0.5;entryDx=0;entryDy=0;" parent="470" source="402" target="399" edge="1">
                    <mxGeometry relative="1" as="geometry"/>
                </mxCell>
                <mxCell id="402" value="A" style="ellipse;whiteSpace=wrap;html=1;aspect=fixed;" parent="470" vertex="1">
                    <mxGeometry x="192.5" y="681" width="40" height="40" as="geometry"/>
                </mxCell>
                <mxCell id="403" style="edgeStyle=none;html=1;exitX=1;exitY=0.5;exitDx=0;exitDy=0;entryX=0;entryY=0.5;entryDx=0;entryDy=0;" parent="470" source="399" target="402" edge="1">
                    <mxGeometry relative="1" as="geometry"/>
                </mxCell>
                <mxCell id="404" value="INPUT&lt;br&gt;&lt;br&gt;id" style="shape=parallelogram;perimeter=parallelogramPerimeter;whiteSpace=wrap;html=1;fixedSize=1;" parent="470" vertex="1">
                    <mxGeometry x="7.5" y="771" width="120" height="60" as="geometry"/>
                </mxCell>
                <mxCell id="405" value="" style="edgeStyle=none;html=1;" parent="470" source="399" target="404" edge="1">
                    <mxGeometry relative="1" as="geometry"/>
                </mxCell>
                <mxCell id="406" value="id != null" style="rhombus;whiteSpace=wrap;html=1;" parent="470" vertex="1">
                    <mxGeometry x="7.5" y="871" width="125" height="80" as="geometry"/>
                </mxCell>
                <mxCell id="407" value="" style="edgeStyle=none;html=1;" parent="470" source="404" target="406" edge="1">
                    <mxGeometry relative="1" as="geometry"/>
                </mxCell>
                <mxCell id="408" value="Categories.length &amp;gt; 0" style="rhombus;whiteSpace=wrap;html=1;" parent="470" vertex="1">
                    <mxGeometry x="202.5" y="871" width="125" height="80" as="geometry"/>
                </mxCell>
                <mxCell id="409" value="False" style="edgeStyle=none;html=1;exitX=1;exitY=0.5;exitDx=0;exitDy=0;entryX=0;entryY=0.5;entryDx=0;entryDy=0;" parent="470" source="406" target="408" edge="1">
                    <mxGeometry relative="1" as="geometry"/>
                </mxCell>
                <mxCell id="410" value="OUTPUT&lt;br&gt;&lt;br&gt;Categories List" style="shape=parallelogram;perimeter=parallelogramPerimeter;whiteSpace=wrap;html=1;fixedSize=1;" parent="470" vertex="1">
                    <mxGeometry x="205" y="761" width="120" height="60" as="geometry"/>
                </mxCell>
                <mxCell id="411" value="True" style="edgeStyle=none;html=1;" parent="470" source="408" target="410" edge="1">
                    <mxGeometry relative="1" as="geometry"/>
                </mxCell>
                <mxCell id="412" value="OUTPUT&lt;br&gt;&lt;br&gt;'Categories list not found'" style="shape=parallelogram;perimeter=parallelogramPerimeter;whiteSpace=wrap;html=1;fixedSize=1;" parent="470" vertex="1">
                    <mxGeometry x="402.5" y="881" width="120" height="60" as="geometry"/>
                </mxCell>
                <mxCell id="413" value="False" style="edgeStyle=none;html=1;" parent="470" source="408" target="412" edge="1">
                    <mxGeometry relative="1" as="geometry"/>
                </mxCell>
                <mxCell id="414" value="B" style="ellipse;whiteSpace=wrap;html=1;aspect=fixed;" parent="470" vertex="1">
                    <mxGeometry x="442.5" y="771" width="40" height="40" as="geometry"/>
                </mxCell>
                <mxCell id="415" style="edgeStyle=none;html=1;exitX=0.5;exitY=0;exitDx=0;exitDy=0;entryX=0.5;entryY=1;entryDx=0;entryDy=0;" parent="470" source="412" target="414" edge="1">
                    <mxGeometry relative="1" as="geometry"/>
                </mxCell>
                <mxCell id="416" value="categories.length &amp;gt; 0" style="rhombus;whiteSpace=wrap;html=1;" parent="470" vertex="1">
                    <mxGeometry x="7.5" y="991" width="125" height="80" as="geometry"/>
                </mxCell>
                <mxCell id="417" value="True" style="edgeStyle=none;html=1;exitX=0.5;exitY=1;exitDx=0;exitDy=0;entryX=0.5;entryY=0;entryDx=0;entryDy=0;" parent="470" source="406" target="416" edge="1">
                    <mxGeometry relative="1" as="geometry"/>
                </mxCell>
                <mxCell id="418" value="OUTPUT&lt;br&gt;&lt;br&gt;'Data categories not found'" style="shape=parallelogram;perimeter=parallelogramPerimeter;whiteSpace=wrap;html=1;fixedSize=1;" parent="470" vertex="1">
                    <mxGeometry x="10" y="1111" width="120" height="60" as="geometry"/>
                </mxCell>
                <mxCell id="419" value="False" style="edgeStyle=none;html=1;entryX=0.5;entryY=0;entryDx=0;entryDy=0;" parent="470" source="416" target="418" edge="1">
                    <mxGeometry relative="1" as="geometry"/>
                </mxCell>
                <mxCell id="420" style="edgeStyle=none;html=1;exitX=1;exitY=0.5;exitDx=0;exitDy=0;" parent="470" source="421" edge="1">
                    <mxGeometry relative="1" as="geometry">
                        <mxPoint x="352.5" y="1031.0588235294117" as="targetPoint"/>
                    </mxGeometry>
                </mxCell>
                <mxCell id="421" value="OUTPUT&lt;br&gt;&lt;br&gt;Data categories" style="shape=parallelogram;perimeter=parallelogramPerimeter;whiteSpace=wrap;html=1;fixedSize=1;" parent="470" vertex="1">
                    <mxGeometry x="202.5" y="1001" width="120" height="60" as="geometry"/>
                </mxCell>
                <mxCell id="422" value="True" style="edgeStyle=none;html=1;exitX=1;exitY=0.5;exitDx=0;exitDy=0;entryX=0;entryY=0.5;entryDx=0;entryDy=0;" parent="470" source="416" target="421" edge="1">
                    <mxGeometry relative="1" as="geometry"/>
                </mxCell>
                <mxCell id="423" value="C" style="ellipse;whiteSpace=wrap;html=1;aspect=fixed;" parent="470" vertex="1">
                    <mxGeometry x="352.5" y="1011" width="40" height="40" as="geometry"/>
                </mxCell>
                <mxCell id="424" value="C" style="ellipse;whiteSpace=wrap;html=1;aspect=fixed;" parent="470" vertex="1">
                    <mxGeometry x="245" y="681" width="40" height="40" as="geometry"/>
                </mxCell>
                <mxCell id="425" style="edgeStyle=none;html=1;exitX=0.5;exitY=0;exitDx=0;exitDy=0;entryX=0.5;entryY=1;entryDx=0;entryDy=0;" parent="470" source="410" target="424" edge="1">
                    <mxGeometry relative="1" as="geometry"/>
                </mxCell>
                <mxCell id="426" value="B" style="ellipse;whiteSpace=wrap;html=1;aspect=fixed;" parent="470" vertex="1">
                    <mxGeometry x="182.5" y="1121" width="40" height="40" as="geometry"/>
                </mxCell>
                <mxCell id="427" style="edgeStyle=none;html=1;exitX=1;exitY=0.5;exitDx=0;exitDy=0;entryX=0;entryY=0.5;entryDx=0;entryDy=0;" parent="470" source="418" target="426" edge="1">
                    <mxGeometry relative="1" as="geometry"/>
                </mxCell>
                <mxCell id="395" value="C" style="ellipse;whiteSpace=wrap;html=1;aspect=fixed;" parent="470" vertex="1">
                    <mxGeometry x="577.5" width="40" height="40" as="geometry"/>
                </mxCell>
                <mxCell id="428" value="UPDATE DATA categories" style="rhombus;whiteSpace=wrap;html=1;" parent="470" vertex="1">
                    <mxGeometry x="530" y="80" width="135" height="100" as="geometry"/>
                </mxCell>
                <mxCell id="429" style="edgeStyle=none;html=1;exitX=0.5;exitY=1;exitDx=0;exitDy=0;" parent="470" source="395" target="428" edge="1">
                    <mxGeometry relative="1" as="geometry"/>
                </mxCell>
                <mxCell id="430" value="B" style="ellipse;whiteSpace=wrap;html=1;aspect=fixed;" parent="470" vertex="1">
                    <mxGeometry x="718.75" y="110" width="40" height="40" as="geometry"/>
                </mxCell>
                <mxCell id="431" value="False" style="edgeStyle=none;html=1;exitX=1;exitY=0.5;exitDx=0;exitDy=0;entryX=0;entryY=0.5;entryDx=0;entryDy=0;" parent="470" source="428" target="430" edge="1">
                    <mxGeometry relative="1" as="geometry"/>
                </mxCell>
                <mxCell id="432" value="INPUT&lt;br&gt;&lt;br&gt;id&lt;br&gt;data.categories" style="shape=parallelogram;perimeter=parallelogramPerimeter;whiteSpace=wrap;html=1;fixedSize=1;" parent="470" vertex="1">
                    <mxGeometry x="537.5" y="220" width="120" height="60" as="geometry"/>
                </mxCell>
                <mxCell id="433" value="True" style="edgeStyle=none;html=1;exitX=0.5;exitY=1;exitDx=0;exitDy=0;entryX=0.5;entryY=0;entryDx=0;entryDy=0;" parent="470" source="428" target="432" edge="1">
                    <mxGeometry relative="1" as="geometry"/>
                </mxCell>
                <mxCell id="435" style="edgeStyle=none;html=1;exitX=0.5;exitY=1;exitDx=0;exitDy=0;entryX=0.5;entryY=0;entryDx=0;entryDy=0;" parent="470" source="432" edge="1">
                    <mxGeometry relative="1" as="geometry">
                        <mxPoint x="597.5" y="320" as="targetPoint"/>
                    </mxGeometry>
                </mxCell>
                <mxCell id="440" value="MODELS UPDATE histories" style="whiteSpace=wrap;html=1;" parent="470" vertex="1">
                    <mxGeometry x="537.5" y="320" width="120" height="60" as="geometry"/>
                </mxCell>
                <mxCell id="442" value="A" style="ellipse;whiteSpace=wrap;html=1;aspect=fixed;" parent="470" vertex="1">
                    <mxGeometry x="726.25" y="330" width="40" height="40" as="geometry"/>
                </mxCell>
                <mxCell id="443" style="edgeStyle=none;html=1;exitX=1;exitY=0.5;exitDx=0;exitDy=0;entryX=0;entryY=0.5;entryDx=0;entryDy=0;" parent="470" source="440" target="442" edge="1">
                    <mxGeometry relative="1" as="geometry"/>
                </mxCell>
                <mxCell id="444" value="OUTPUT&lt;br&gt;&lt;br&gt;'Update data success'" style="shape=parallelogram;perimeter=parallelogramPerimeter;whiteSpace=wrap;html=1;fixedSize=1;" parent="470" vertex="1">
                    <mxGeometry x="537.5" y="420" width="120" height="60" as="geometry"/>
                </mxCell>
                <mxCell id="445" style="edgeStyle=none;html=1;exitX=0.5;exitY=1;exitDx=0;exitDy=0;entryX=0.5;entryY=0;entryDx=0;entryDy=0;" parent="470" source="440" target="444" edge="1">
                    <mxGeometry relative="1" as="geometry"/>
                </mxCell>
                <mxCell id="446" value="DELETE DATA categories" style="rhombus;whiteSpace=wrap;html=1;" parent="470" vertex="1">
                    <mxGeometry x="530" y="520" width="135" height="100" as="geometry"/>
                </mxCell>
                <mxCell id="447" style="edgeStyle=none;html=1;exitX=0.5;exitY=1;exitDx=0;exitDy=0;entryX=0.5;entryY=0;entryDx=0;entryDy=0;" parent="470" source="444" target="446" edge="1">
                    <mxGeometry relative="1" as="geometry"/>
                </mxCell>
                <mxCell id="448" value="B" style="ellipse;whiteSpace=wrap;html=1;aspect=fixed;" parent="470" vertex="1">
                    <mxGeometry x="718.75" y="550" width="40" height="40" as="geometry"/>
                </mxCell>
                <mxCell id="449" value="False" style="edgeStyle=none;html=1;exitX=1;exitY=0.5;exitDx=0;exitDy=0;entryX=0;entryY=0.5;entryDx=0;entryDy=0;" parent="470" source="446" target="448" edge="1">
                    <mxGeometry relative="1" as="geometry"/>
                </mxCell>
                <mxCell id="450" value="INPUT&lt;br&gt;&lt;br&gt;id" style="shape=parallelogram;perimeter=parallelogramPerimeter;whiteSpace=wrap;html=1;fixedSize=1;" parent="470" vertex="1">
                    <mxGeometry x="537.5" y="670" width="120" height="60" as="geometry"/>
                </mxCell>
                <mxCell id="451" value="True" style="edgeStyle=none;html=1;exitX=0.5;exitY=1;exitDx=0;exitDy=0;" parent="470" source="446" target="450" edge="1">
                    <mxGeometry relative="1" as="geometry"/>
                </mxCell>
                <mxCell id="452" value="MODELS DELETE categories" style="whiteSpace=wrap;html=1;" parent="470" vertex="1">
                    <mxGeometry x="537.5" y="770" width="120" height="60" as="geometry"/>
                </mxCell>
                <mxCell id="453" style="edgeStyle=none;html=1;exitX=0.5;exitY=1;exitDx=0;exitDy=0;entryX=0.5;entryY=0;entryDx=0;entryDy=0;" parent="470" source="450" target="452" edge="1">
                    <mxGeometry relative="1" as="geometry"/>
                </mxCell>
                <mxCell id="454" value="A" style="ellipse;whiteSpace=wrap;html=1;aspect=fixed;" parent="470" vertex="1">
                    <mxGeometry x="718.75" y="779" width="40" height="40" as="geometry"/>
                </mxCell>
                <mxCell id="455" style="edgeStyle=none;html=1;exitX=1;exitY=0.5;exitDx=0;exitDy=0;entryX=0;entryY=0.5;entryDx=0;entryDy=0;" parent="470" source="452" target="454" edge="1">
                    <mxGeometry relative="1" as="geometry"/>
                </mxCell>
                <mxCell id="456" value="OUTPUT&lt;br&gt;&lt;br&gt;'Delete data &lt;br&gt;success!'" style="shape=parallelogram;perimeter=parallelogramPerimeter;whiteSpace=wrap;html=1;fixedSize=1;" parent="470" vertex="1">
                    <mxGeometry x="537.5" y="870" width="120" height="60" as="geometry"/>
                </mxCell>
                <mxCell id="457" style="edgeStyle=none;html=1;exitX=0.5;exitY=1;exitDx=0;exitDy=0;entryX=0.5;entryY=0;entryDx=0;entryDy=0;" parent="470" source="452" target="456" edge="1">
                    <mxGeometry relative="1" as="geometry"/>
                </mxCell>
                <mxCell id="458" value="B" style="ellipse;whiteSpace=wrap;html=1;aspect=fixed;" parent="470" vertex="1">
                    <mxGeometry x="692.5" y="880" width="40" height="40" as="geometry"/>
                </mxCell>
                <mxCell id="459" style="edgeStyle=none;html=1;exitX=1;exitY=0.5;exitDx=0;exitDy=0;entryX=0;entryY=0.5;entryDx=0;entryDy=0;" parent="470" source="456" target="458" edge="1">
                    <mxGeometry relative="1" as="geometry"/>
                </mxCell>
                <mxCell id="471" value="c" style="group" vertex="1" connectable="0" parent="1">
                    <mxGeometry x="1090" y="1560" width="766.25" height="1171" as="geometry"/>
                </mxCell>
                <mxCell id="472" value="INPUT&amp;nbsp;&lt;br&gt;&lt;br&gt;data.categories" style="shape=parallelogram;perimeter=parallelogramPerimeter;whiteSpace=wrap;html=1;fixedSize=1;" vertex="1" parent="471">
                    <mxGeometry x="7.5" y="80" width="120" height="60" as="geometry"/>
                </mxCell>
                <mxCell id="473" value="" style="edgeStyle=none;html=1;" edge="1" parent="471" source="474" target="472">
                    <mxGeometry relative="1" as="geometry"/>
                </mxCell>
                <mxCell id="474" value="START" style="ellipse;whiteSpace=wrap;html=1;" vertex="1" parent="471">
                    <mxGeometry x="22.5" width="90" height="40" as="geometry"/>
                </mxCell>
                <mxCell id="475" value="TYPE data.histories" style="rhombus;whiteSpace=wrap;html=1;" vertex="1" parent="471">
                    <mxGeometry y="181" width="135" height="100" as="geometry"/>
                </mxCell>
                <mxCell id="476" style="edgeStyle=none;html=1;exitX=0.5;exitY=1;exitDx=0;exitDy=0;entryX=0.5;entryY=0;entryDx=0;entryDy=0;" edge="1" parent="471" source="472" target="475">
                    <mxGeometry relative="1" as="geometry"/>
                </mxCell>
                <mxCell id="477" value="OUTPUT&lt;br&gt;&lt;br&gt;'Invalid Input type data'" style="shape=parallelogram;perimeter=parallelogramPerimeter;whiteSpace=wrap;html=1;fixedSize=1;" vertex="1" parent="471">
                    <mxGeometry x="197.5" y="201" width="120" height="60" as="geometry"/>
                </mxCell>
                <mxCell id="478" value="False" style="edgeStyle=none;html=1;exitX=1;exitY=0.5;exitDx=0;exitDy=0;entryX=0;entryY=0.5;entryDx=0;entryDy=0;" edge="1" parent="471" source="475" target="477">
                    <mxGeometry relative="1" as="geometry"/>
                </mxCell>
                <mxCell id="479" value="B" style="ellipse;whiteSpace=wrap;html=1;aspect=fixed;" vertex="1" parent="471">
                    <mxGeometry x="382.5" y="211" width="40" height="40" as="geometry"/>
                </mxCell>
                <mxCell id="480" style="edgeStyle=none;html=1;exitX=1;exitY=0.5;exitDx=0;exitDy=0;entryX=0;entryY=0.5;entryDx=0;entryDy=0;" edge="1" parent="471" source="477" target="479">
                    <mxGeometry relative="1" as="geometry"/>
                </mxCell>
                <mxCell id="481" value="MODELS POST histories" style="whiteSpace=wrap;html=1;" vertex="1" parent="471">
                    <mxGeometry x="7.5" y="331" width="120" height="60" as="geometry"/>
                </mxCell>
                <mxCell id="482" value="" style="edgeStyle=none;html=1;" edge="1" parent="471" source="475" target="481">
                    <mxGeometry relative="1" as="geometry"/>
                </mxCell>
                <mxCell id="483" value="True" style="edgeLabel;html=1;align=center;verticalAlign=middle;resizable=0;points=[];" vertex="1" connectable="0" parent="482">
                    <mxGeometry x="-0.3153" y="-2" relative="1" as="geometry">
                        <mxPoint y="-1" as="offset"/>
                    </mxGeometry>
                </mxCell>
                <mxCell id="484" value="A" style="ellipse;whiteSpace=wrap;html=1;aspect=fixed;" vertex="1" parent="471">
                    <mxGeometry x="192.5" y="341" width="40" height="40" as="geometry"/>
                </mxCell>
                <mxCell id="485" style="edgeStyle=none;html=1;exitX=1;exitY=0.5;exitDx=0;exitDy=0;entryX=0;entryY=0.5;entryDx=0;entryDy=0;" edge="1" parent="471" source="481" target="484">
                    <mxGeometry relative="1" as="geometry"/>
                </mxCell>
                <mxCell id="486" style="edgeStyle=none;html=1;exitX=0.5;exitY=1;exitDx=0;exitDy=0;" edge="1" parent="471" source="487">
                    <mxGeometry relative="1" as="geometry">
                        <mxPoint x="67.08823529411768" y="531" as="targetPoint"/>
                    </mxGeometry>
                </mxCell>
                <mxCell id="487" value="OUTPUT&lt;br&gt;&lt;br&gt;'Input data success!'" style="shape=parallelogram;perimeter=parallelogramPerimeter;whiteSpace=wrap;html=1;fixedSize=1;" vertex="1" parent="471">
                    <mxGeometry x="7.5" y="431" width="120" height="60" as="geometry"/>
                </mxCell>
                <mxCell id="488" style="edgeStyle=none;html=1;exitX=0.5;exitY=1;exitDx=0;exitDy=0;entryX=0.5;entryY=0;entryDx=0;entryDy=0;" edge="1" parent="471" source="481" target="487">
                    <mxGeometry relative="1" as="geometry"/>
                </mxCell>
                <mxCell id="489" value="GET DATA histories" style="rhombus;whiteSpace=wrap;html=1;" vertex="1" parent="471">
                    <mxGeometry y="531" width="135" height="100" as="geometry"/>
                </mxCell>
                <mxCell id="490" value="B" style="ellipse;whiteSpace=wrap;html=1;aspect=fixed;" vertex="1" parent="471">
                    <mxGeometry x="192.5" y="561" width="40" height="40" as="geometry"/>
                </mxCell>
                <mxCell id="491" value="False" style="edgeStyle=none;html=1;exitX=1;exitY=0.5;exitDx=0;exitDy=0;entryX=0;entryY=0.5;entryDx=0;entryDy=0;" edge="1" parent="471" source="489" target="490">
                    <mxGeometry relative="1" as="geometry"/>
                </mxCell>
                <mxCell id="492" value="MODELS GET histories" style="whiteSpace=wrap;html=1;" vertex="1" parent="471">
                    <mxGeometry x="7.5" y="671" width="120" height="60" as="geometry"/>
                </mxCell>
                <mxCell id="493" value="True" style="edgeStyle=none;html=1;exitX=0.5;exitY=1;exitDx=0;exitDy=0;entryX=0.5;entryY=0;entryDx=0;entryDy=0;" edge="1" parent="471" source="489" target="492">
                    <mxGeometry relative="1" as="geometry"/>
                </mxCell>
                <mxCell id="494" style="edgeStyle=none;html=1;exitX=0;exitY=0.5;exitDx=0;exitDy=0;entryX=1;entryY=0.5;entryDx=0;entryDy=0;" edge="1" parent="471" source="495" target="492">
                    <mxGeometry relative="1" as="geometry"/>
                </mxCell>
                <mxCell id="495" value="A" style="ellipse;whiteSpace=wrap;html=1;aspect=fixed;" vertex="1" parent="471">
                    <mxGeometry x="192.5" y="681" width="40" height="40" as="geometry"/>
                </mxCell>
                <mxCell id="496" style="edgeStyle=none;html=1;exitX=1;exitY=0.5;exitDx=0;exitDy=0;entryX=0;entryY=0.5;entryDx=0;entryDy=0;" edge="1" parent="471" source="492" target="495">
                    <mxGeometry relative="1" as="geometry"/>
                </mxCell>
                <mxCell id="497" value="INPUT&lt;br&gt;&lt;br&gt;id" style="shape=parallelogram;perimeter=parallelogramPerimeter;whiteSpace=wrap;html=1;fixedSize=1;" vertex="1" parent="471">
                    <mxGeometry x="7.5" y="771" width="120" height="60" as="geometry"/>
                </mxCell>
                <mxCell id="498" value="" style="edgeStyle=none;html=1;" edge="1" parent="471" source="492" target="497">
                    <mxGeometry relative="1" as="geometry"/>
                </mxCell>
                <mxCell id="499" value="id != null" style="rhombus;whiteSpace=wrap;html=1;" vertex="1" parent="471">
                    <mxGeometry x="7.5" y="871" width="125" height="80" as="geometry"/>
                </mxCell>
                <mxCell id="500" value="" style="edgeStyle=none;html=1;" edge="1" parent="471" source="497" target="499">
                    <mxGeometry relative="1" as="geometry"/>
                </mxCell>
                <mxCell id="501" value="Histories.length &amp;gt; 0" style="rhombus;whiteSpace=wrap;html=1;" vertex="1" parent="471">
                    <mxGeometry x="202.5" y="871" width="125" height="80" as="geometry"/>
                </mxCell>
                <mxCell id="502" value="False" style="edgeStyle=none;html=1;exitX=1;exitY=0.5;exitDx=0;exitDy=0;entryX=0;entryY=0.5;entryDx=0;entryDy=0;" edge="1" parent="471" source="499" target="501">
                    <mxGeometry relative="1" as="geometry"/>
                </mxCell>
                <mxCell id="503" value="OUTPUT&lt;br&gt;&lt;br&gt;Histories List" style="shape=parallelogram;perimeter=parallelogramPerimeter;whiteSpace=wrap;html=1;fixedSize=1;" vertex="1" parent="471">
                    <mxGeometry x="205" y="761" width="120" height="60" as="geometry"/>
                </mxCell>
                <mxCell id="504" value="True" style="edgeStyle=none;html=1;" edge="1" parent="471" source="501" target="503">
                    <mxGeometry relative="1" as="geometry"/>
                </mxCell>
                <mxCell id="505" value="OUTPUT&lt;br&gt;&lt;br&gt;'Histories list not found'" style="shape=parallelogram;perimeter=parallelogramPerimeter;whiteSpace=wrap;html=1;fixedSize=1;" vertex="1" parent="471">
                    <mxGeometry x="402.5" y="881" width="120" height="60" as="geometry"/>
                </mxCell>
                <mxCell id="506" value="False" style="edgeStyle=none;html=1;" edge="1" parent="471" source="501" target="505">
                    <mxGeometry relative="1" as="geometry"/>
                </mxCell>
                <mxCell id="507" value="B" style="ellipse;whiteSpace=wrap;html=1;aspect=fixed;" vertex="1" parent="471">
                    <mxGeometry x="442.5" y="771" width="40" height="40" as="geometry"/>
                </mxCell>
                <mxCell id="508" style="edgeStyle=none;html=1;exitX=0.5;exitY=0;exitDx=0;exitDy=0;entryX=0.5;entryY=1;entryDx=0;entryDy=0;" edge="1" parent="471" source="505" target="507">
                    <mxGeometry relative="1" as="geometry"/>
                </mxCell>
                <mxCell id="509" value="Histories.length &amp;gt; 0" style="rhombus;whiteSpace=wrap;html=1;" vertex="1" parent="471">
                    <mxGeometry x="7.5" y="991" width="125" height="80" as="geometry"/>
                </mxCell>
                <mxCell id="510" value="True" style="edgeStyle=none;html=1;exitX=0.5;exitY=1;exitDx=0;exitDy=0;entryX=0.5;entryY=0;entryDx=0;entryDy=0;" edge="1" parent="471" source="499" target="509">
                    <mxGeometry relative="1" as="geometry"/>
                </mxCell>
                <mxCell id="511" value="OUTPUT&lt;br&gt;&lt;br&gt;'Data histories not found'" style="shape=parallelogram;perimeter=parallelogramPerimeter;whiteSpace=wrap;html=1;fixedSize=1;" vertex="1" parent="471">
                    <mxGeometry x="10" y="1111" width="120" height="60" as="geometry"/>
                </mxCell>
                <mxCell id="512" value="False" style="edgeStyle=none;html=1;entryX=0.5;entryY=0;entryDx=0;entryDy=0;" edge="1" parent="471" source="509" target="511">
                    <mxGeometry relative="1" as="geometry"/>
                </mxCell>
                <mxCell id="513" style="edgeStyle=none;html=1;exitX=1;exitY=0.5;exitDx=0;exitDy=0;" edge="1" parent="471" source="514">
                    <mxGeometry relative="1" as="geometry">
                        <mxPoint x="352.5" y="1031.0588235294117" as="targetPoint"/>
                    </mxGeometry>
                </mxCell>
                <mxCell id="514" value="OUTPUT&lt;br&gt;&lt;br&gt;Data histories" style="shape=parallelogram;perimeter=parallelogramPerimeter;whiteSpace=wrap;html=1;fixedSize=1;" vertex="1" parent="471">
                    <mxGeometry x="202.5" y="1001" width="120" height="60" as="geometry"/>
                </mxCell>
                <mxCell id="515" value="True" style="edgeStyle=none;html=1;exitX=1;exitY=0.5;exitDx=0;exitDy=0;entryX=0;entryY=0.5;entryDx=0;entryDy=0;" edge="1" parent="471" source="509" target="514">
                    <mxGeometry relative="1" as="geometry"/>
                </mxCell>
                <mxCell id="516" value="C" style="ellipse;whiteSpace=wrap;html=1;aspect=fixed;" vertex="1" parent="471">
                    <mxGeometry x="352.5" y="1011" width="40" height="40" as="geometry"/>
                </mxCell>
                <mxCell id="517" value="C" style="ellipse;whiteSpace=wrap;html=1;aspect=fixed;" vertex="1" parent="471">
                    <mxGeometry x="245" y="681" width="40" height="40" as="geometry"/>
                </mxCell>
                <mxCell id="518" style="edgeStyle=none;html=1;exitX=0.5;exitY=0;exitDx=0;exitDy=0;entryX=0.5;entryY=1;entryDx=0;entryDy=0;" edge="1" parent="471" source="503" target="517">
                    <mxGeometry relative="1" as="geometry"/>
                </mxCell>
                <mxCell id="519" value="B" style="ellipse;whiteSpace=wrap;html=1;aspect=fixed;" vertex="1" parent="471">
                    <mxGeometry x="182.5" y="1121" width="40" height="40" as="geometry"/>
                </mxCell>
                <mxCell id="520" style="edgeStyle=none;html=1;exitX=1;exitY=0.5;exitDx=0;exitDy=0;entryX=0;entryY=0.5;entryDx=0;entryDy=0;" edge="1" parent="471" source="511" target="519">
                    <mxGeometry relative="1" as="geometry"/>
                </mxCell>
                <mxCell id="521" value="C" style="ellipse;whiteSpace=wrap;html=1;aspect=fixed;" vertex="1" parent="471">
                    <mxGeometry x="577.5" width="40" height="40" as="geometry"/>
                </mxCell>
                <mxCell id="522" value="UPDATE DATA histories" style="rhombus;whiteSpace=wrap;html=1;" vertex="1" parent="471">
                    <mxGeometry x="530" y="80" width="135" height="100" as="geometry"/>
                </mxCell>
                <mxCell id="523" style="edgeStyle=none;html=1;exitX=0.5;exitY=1;exitDx=0;exitDy=0;" edge="1" parent="471" source="521" target="522">
                    <mxGeometry relative="1" as="geometry"/>
                </mxCell>
                <mxCell id="524" value="B" style="ellipse;whiteSpace=wrap;html=1;aspect=fixed;" vertex="1" parent="471">
                    <mxGeometry x="718.75" y="110" width="40" height="40" as="geometry"/>
                </mxCell>
                <mxCell id="525" value="False" style="edgeStyle=none;html=1;exitX=1;exitY=0.5;exitDx=0;exitDy=0;entryX=0;entryY=0.5;entryDx=0;entryDy=0;" edge="1" parent="471" source="522" target="524">
                    <mxGeometry relative="1" as="geometry"/>
                </mxCell>
                <mxCell id="526" value="INPUT&lt;br&gt;&lt;br&gt;id&lt;br&gt;data.histories" style="shape=parallelogram;perimeter=parallelogramPerimeter;whiteSpace=wrap;html=1;fixedSize=1;" vertex="1" parent="471">
                    <mxGeometry x="537.5" y="220" width="120" height="60" as="geometry"/>
                </mxCell>
                <mxCell id="527" value="True" style="edgeStyle=none;html=1;exitX=0.5;exitY=1;exitDx=0;exitDy=0;entryX=0.5;entryY=0;entryDx=0;entryDy=0;" edge="1" parent="471" source="522" target="526">
                    <mxGeometry relative="1" as="geometry"/>
                </mxCell>
                <mxCell id="528" style="edgeStyle=none;html=1;exitX=0.5;exitY=1;exitDx=0;exitDy=0;entryX=0.5;entryY=0;entryDx=0;entryDy=0;" edge="1" parent="471" source="526">
                    <mxGeometry relative="1" as="geometry">
                        <mxPoint x="597.5" y="320" as="targetPoint"/>
                    </mxGeometry>
                </mxCell>
                <mxCell id="529" value="MODELS UPDATE histories" style="whiteSpace=wrap;html=1;" vertex="1" parent="471">
                    <mxGeometry x="537.5" y="320" width="120" height="60" as="geometry"/>
                </mxCell>
                <mxCell id="530" value="A" style="ellipse;whiteSpace=wrap;html=1;aspect=fixed;" vertex="1" parent="471">
                    <mxGeometry x="726.25" y="330" width="40" height="40" as="geometry"/>
                </mxCell>
                <mxCell id="531" style="edgeStyle=none;html=1;exitX=1;exitY=0.5;exitDx=0;exitDy=0;entryX=0;entryY=0.5;entryDx=0;entryDy=0;" edge="1" parent="471" source="529" target="530">
                    <mxGeometry relative="1" as="geometry"/>
                </mxCell>
                <mxCell id="532" value="OUTPUT&lt;br&gt;&lt;br&gt;'Update data success'" style="shape=parallelogram;perimeter=parallelogramPerimeter;whiteSpace=wrap;html=1;fixedSize=1;" vertex="1" parent="471">
                    <mxGeometry x="537.5" y="420" width="120" height="60" as="geometry"/>
                </mxCell>
                <mxCell id="533" style="edgeStyle=none;html=1;exitX=0.5;exitY=1;exitDx=0;exitDy=0;entryX=0.5;entryY=0;entryDx=0;entryDy=0;" edge="1" parent="471" source="529" target="532">
                    <mxGeometry relative="1" as="geometry"/>
                </mxCell>
                <mxCell id="534" value="DELETE DATA histories" style="rhombus;whiteSpace=wrap;html=1;" vertex="1" parent="471">
                    <mxGeometry x="530" y="520" width="135" height="100" as="geometry"/>
                </mxCell>
                <mxCell id="535" style="edgeStyle=none;html=1;exitX=0.5;exitY=1;exitDx=0;exitDy=0;entryX=0.5;entryY=0;entryDx=0;entryDy=0;" edge="1" parent="471" source="532" target="534">
                    <mxGeometry relative="1" as="geometry"/>
                </mxCell>
                <mxCell id="536" value="B" style="ellipse;whiteSpace=wrap;html=1;aspect=fixed;" vertex="1" parent="471">
                    <mxGeometry x="718.75" y="550" width="40" height="40" as="geometry"/>
                </mxCell>
                <mxCell id="537" value="False" style="edgeStyle=none;html=1;exitX=1;exitY=0.5;exitDx=0;exitDy=0;entryX=0;entryY=0.5;entryDx=0;entryDy=0;" edge="1" parent="471" source="534" target="536">
                    <mxGeometry relative="1" as="geometry"/>
                </mxCell>
                <mxCell id="538" value="INPUT&lt;br&gt;&lt;br&gt;id" style="shape=parallelogram;perimeter=parallelogramPerimeter;whiteSpace=wrap;html=1;fixedSize=1;" vertex="1" parent="471">
                    <mxGeometry x="537.5" y="670" width="120" height="60" as="geometry"/>
                </mxCell>
                <mxCell id="539" value="True" style="edgeStyle=none;html=1;exitX=0.5;exitY=1;exitDx=0;exitDy=0;" edge="1" parent="471" source="534" target="538">
                    <mxGeometry relative="1" as="geometry"/>
                </mxCell>
                <mxCell id="540" value="MODELS DELETE histories" style="whiteSpace=wrap;html=1;" vertex="1" parent="471">
                    <mxGeometry x="537.5" y="770" width="120" height="60" as="geometry"/>
                </mxCell>
                <mxCell id="541" style="edgeStyle=none;html=1;exitX=0.5;exitY=1;exitDx=0;exitDy=0;entryX=0.5;entryY=0;entryDx=0;entryDy=0;" edge="1" parent="471" source="538" target="540">
                    <mxGeometry relative="1" as="geometry"/>
                </mxCell>
                <mxCell id="542" value="A" style="ellipse;whiteSpace=wrap;html=1;aspect=fixed;" vertex="1" parent="471">
                    <mxGeometry x="718.75" y="779" width="40" height="40" as="geometry"/>
                </mxCell>
                <mxCell id="543" style="edgeStyle=none;html=1;exitX=1;exitY=0.5;exitDx=0;exitDy=0;entryX=0;entryY=0.5;entryDx=0;entryDy=0;" edge="1" parent="471" source="540" target="542">
                    <mxGeometry relative="1" as="geometry"/>
                </mxCell>
                <mxCell id="544" value="OUTPUT&lt;br&gt;&lt;br&gt;'Delete data &lt;br&gt;success!'" style="shape=parallelogram;perimeter=parallelogramPerimeter;whiteSpace=wrap;html=1;fixedSize=1;" vertex="1" parent="471">
                    <mxGeometry x="537.5" y="870" width="120" height="60" as="geometry"/>
                </mxCell>
                <mxCell id="545" style="edgeStyle=none;html=1;exitX=0.5;exitY=1;exitDx=0;exitDy=0;entryX=0.5;entryY=0;entryDx=0;entryDy=0;" edge="1" parent="471" source="540" target="544">
                    <mxGeometry relative="1" as="geometry"/>
                </mxCell>
                <mxCell id="546" value="B" style="ellipse;whiteSpace=wrap;html=1;aspect=fixed;" vertex="1" parent="471">
                    <mxGeometry x="692.5" y="880" width="40" height="40" as="geometry"/>
                </mxCell>
                <mxCell id="547" style="edgeStyle=none;html=1;exitX=1;exitY=0.5;exitDx=0;exitDy=0;entryX=0;entryY=0.5;entryDx=0;entryDy=0;" edge="1" parent="471" source="544" target="546">
                    <mxGeometry relative="1" as="geometry"/>
                </mxCell>
                <mxCell id="548" value="&lt;h1&gt;Flowchart Histories&lt;/h1&gt;" style="text;html=1;strokeColor=none;fillColor=none;spacing=5;spacingTop=-20;whiteSpace=wrap;overflow=hidden;rounded=0;align=center;" vertex="1" parent="1">
                    <mxGeometry x="1090" y="1480" width="150" height="70" as="geometry"/>
                </mxCell>
            </root>
        </mxGraphModel>
    </diagram>
    <diagram id="_5Rbe-F9lDXAjqKdCLBp" name="ERD">
        <mxGraphModel dx="820" dy="516" grid="1" gridSize="10" guides="1" tooltips="1" connect="1" arrows="1" fold="1" page="1" pageScale="1" pageWidth="850" pageHeight="1100" math="0" shadow="0">
            <root>
                <mxCell id="vyEPk5ApUTwZ3c9LndBS-0"/>
                <mxCell id="vyEPk5ApUTwZ3c9LndBS-1" parent="vyEPk5ApUTwZ3c9LndBS-0"/>
                <mxCell id="vyEPk5ApUTwZ3c9LndBS-2" value="&lt;h1&gt;ERD Vehicle Rent&lt;/h1&gt;" style="text;html=1;strokeColor=none;fillColor=none;spacing=5;spacingTop=-20;whiteSpace=wrap;overflow=hidden;rounded=0;" vertex="1" parent="vyEPk5ApUTwZ3c9LndBS-1">
                    <mxGeometry x="10" y="10" width="300" height="50" as="geometry"/>
                </mxCell>
            </root>
        </mxGraphModel>
    </diagram>
</mxfile>